<?xml version="1.0" standalone="no"?>
<!DOCTYPE svg PUBLIC "-//W3C//DTD SVG 20010904//EN"
 "http://www.w3.org/TR/2001/REC-SVG-20010904/DTD/svg10.dtd">
<svg version="1.0" xmlns="http://www.w3.org/2000/svg"
 width="256.000000pt" height="256.000000pt" viewBox="0 0 256.000000 256.000000"
 preserveAspectRatio="xMidYMid meet">
<metadata>
Created by potrace 1.14, written by Peter Selinger 2001-2017
</metadata>
<g transform="translate(0.000000,256.000000) scale(0.100000,-0.100000)"
fill="#000000" stroke="none">
<path d="M187 2550 c-53 -16 -115 -64 -148 -114 l-34 -51 0 -1100 0 -1101 34
-55 c22 -36 51 -68 85 -90 l51 -34 1105 0 1105 0 52 35 c33 22 64 55 85 90
l33 54 0 1096 0 1096 -34 56 c-24 40 -49 65 -89 89 l-56 34 -1081 2 c-594 1
-1092 -2 -1108 -7z m1660 -692 c134 -134 243 -247 243 -253 0 -6 -90 -100
-199 -209 l-199 -199 -146 48 c-80 26 -146 51 -146 54 0 4 34 40 75 80 l74 73
37 -12 36 -12 84 83 c46 46 84 88 84 94 0 6 -43 53 -95 105 l-95 95 -89 -89
-89 -89 13 -37 13 -37 -79 -79 c-43 -43 -79 -76 -79 -74 0 3 -20 65 -45 139
-25 73 -45 141 -45 150 0 14 386 411 400 411 3 0 114 -109 247 -242z m-757
-43 l0 -105 -35 0 -35 0 0 105 0 105 35 0 35 0 0 -105z m-220 -70 c83 -83 84
-85 65 -105 -10 -11 -23 -20 -29 -20 -11 0 -166 157 -166 168 0 8 32 42 39 42
4 0 44 -38 91 -85z m-12 -237 l-3 -33 -102 -3 -103 -3 0 36 0 35 106 0 105 0
-3 -32z m184 -154 c76 -25 140 -49 143 -53 2 -4 -29 -41 -70 -81 l-74 -74 -38
12 -38 12 -100 -100 -100 -100 100 -100 100 -100 98 97 98 98 -6 45 c-6 45 -6
45 64 115 44 42 74 66 80 60 4 -6 29 -71 54 -146 l45 -136 -217 -217 -216
-216 -249 249 -248 249 212 216 c117 119 215 216 218 216 3 0 68 -21 144 -46z
m876 -291 l3 -33 -105 0 -106 0 0 35 0 36 103 -3 102 -3 3 -32z m-113 -303
l-25 -25 -87 87 -87 87 24 26 24 26 88 -88 88 -88 -25 -25z m-265 -5 l0 -105
-35 0 -35 0 0 105 0 105 35 0 35 0 0 -105z"/>
<path d="M1437 1842 c-86 -86 -157 -164 -157 -173 0 -8 10 -43 21 -78 l21 -63
21 20 c17 18 19 26 10 60 l-10 40 128 128 129 129 145 -145 c80 -80 145 -149
145 -155 0 -6 -56 -66 -124 -134 l-125 -125 -35 11 c-27 9 -39 8 -56 -4 -11
-8 -18 -18 -15 -23 3 -5 35 -18 71 -30 l66 -22 159 158 c88 87 159 163 159
169 0 10 -380 395 -390 395 -3 0 -76 -71 -163 -158z"/>
<path d="M740 1145 l-175 -175 200 -200 200 -200 176 176 177 177 -20 61 c-26
76 -33 84 -56 63 -17 -15 -18 -23 -8 -58 l10 -40 -139 -139 -140 -140 -149
149 -148 148 138 142 139 141 37 -12 c33 -10 40 -9 58 7 11 10 20 21 20 24 0
3 -26 14 -58 23 -32 9 -64 20 -72 23 -10 3 -75 -55 -190 -170z"/>
</g>
</svg>
