<?xml version="1.0" standalone="no"?>
<!DOCTYPE svg PUBLIC "-//W3C//DTD SVG 20010904//EN"
 "http://www.w3.org/TR/2001/REC-SVG-20010904/DTD/svg10.dtd">
<svg version="1.0" xmlns="http://www.w3.org/2000/svg"
 width="128.000000pt" height="128.000000pt" viewBox="0 0 128.000000 128.000000"
 preserveAspectRatio="xMidYMid meet">
<metadata>
Created by potrace 1.14, written by Peter Selinger 2001-2017
</metadata>
<g transform="translate(0.000000,128.000000) scale(0.100000,-0.100000)"
fill="#000000" stroke="none">
<path d="M294 1136 c-3 -8 66 -111 168 -248 96 -128 178 -239 182 -247 5 -8 9
-40 10 -71 l1 -57 -26 19 c-57 42 -140 23 -173 -40 -45 -87 -5 -189 123 -307
93 -85 101 -84 209 23 85 84 122 148 122 212 0 124 -120 179 -204 95 -15 -15
-16 -11 -16 47 0 56 4 70 35 117 19 29 35 54 35 55 0 2 54 90 121 196 106 170
129 220 102 220 -5 0 -75 -106 -157 -235 -82 -130 -153 -234 -157 -233 -4 2
-40 46 -78 98 -39 52 -74 100 -79 105 -4 6 -34 46 -66 90 -137 188 -141 191
-152 161z m320 -644 c10 -9 27 -34 38 -55 l19 -39 29 46 c32 49 80 81 110 71
57 -18 75 -97 40 -170 -22 -46 -154 -185 -175 -185 -16 0 -122 101 -160 152
-36 50 -48 103 -30 144 26 62 82 78 129 36z"/>
<path d="M738 310 c-9 -17 -29 -35 -43 -40 -30 -11 -34 -40 -5 -40 29 0 90 58
90 86 0 33 -22 30 -42 -6z"/>
</g>
</svg>
